<?xml version="1.0" encoding="utf-8"?>
<!-- Generator: Adobe Illustrator 19.2.1, SVG Export Plug-In . SVG Version: 6.00 Build 0)  -->
<svg version="1.1" id="Layer_1" xmlns="http://www.w3.org/2000/svg" xmlns:xlink="http://www.w3.org/1999/xlink" x="0px" y="0px"
	 viewBox="0 0 192 48" style="enable-background:new 0 0 192 48;" xml:space="preserve">
<style type="text/css">
	.st0{fill:none;}
	.st1{fill:#F39C12;}
	.st2{fill:#FFFFFF;}
</style>
<path class="st0" d="M24,24h24v24H24V24z"/>
<path class="st1" d="M43,28h-1v-2h-2v2h-8v-2h-2v2h-1c-1.1,0-2,0.9-2,2l0,14c0,1.1,0.9,2,2,2h14c1.1,0,2-0.9,2-2V30
	C45,28.9,44.1,28,43,28z M43,44H29V33h14V44z M31,35h5v5h-5V35z"/>
<path class="st0" d="M24,0h24v24H24V0z"/>
<path class="st2" d="M43,4h-1V2h-2v2h-8V2h-2v2h-1c-1.1,0-2,0.9-2,2l0,14c0,1.1,0.9,2,2,2h14c1.1,0,2-0.9,2-2V6C45,4.9,44.1,4,43,4z
	 M43,20H29V9h14V20z M31,11h5v5h-5V11z"/>
<g>
	<circle class="st2" cx="12" cy="13" r="3.2"/>
	<path class="st2" d="M20,5h-3.2L15,3H9L7.2,5H4C2.9,5,2,5.9,2,7v12c0,1.1,0.9,2,2,2h16c1.1,0,2-0.9,2-2V7C22,5.9,21.1,5,20,5z
		 M12,18c-2.8,0-5-2.2-5-5s2.2-5,5-5s5,2.2,5,5S14.8,18,12,18z"/>
</g>
<path class="st0" d="M0,0h24v24H0V0z"/>
<g>
	<circle class="st1" cx="12" cy="37" r="3.2"/>
	<path class="st1" d="M20,29h-3.2L15,27H9l-1.8,2H4c-1.1,0-2,0.9-2,2v12c0,1.1,0.9,2,2,2h16c1.1,0,2-0.9,2-2V31
		C22,29.9,21.1,29,20,29z M12,42c-2.8,0-5-2.2-5-5s2.2-5,5-5s5,2.2,5,5S14.8,42,12,42z"/>
</g>
<path class="st0" d="M0,24h24v24H0V24z"/>
<path class="st0" d="M144,0h24v24h-24V0z"/>
<path class="st2" d="M147,6h18V4h-18c-1.1,0-2,0.9-2,2v12c0,1.1,0.9,2,2,2h4v-2h-4V6z M157,12h-4v1.8c-0.6,0.6-1,1.3-1,2.2
	c0,0.9,0.4,1.7,1,2.2V20h4v-1.8c0.6-0.5,1-1.3,1-2.2s-0.4-1.7-1-2.2V12z M155,17.5c-0.8,0-1.5-0.7-1.5-1.5s0.7-1.5,1.5-1.5
	s1.5,0.7,1.5,1.5S155.8,17.5,155,17.5z M166,8h-6c-0.5,0-1,0.5-1,1v10c0,0.5,0.5,1,1,1h6c0.5,0,1-0.5,1-1V9C167,8.5,166.5,8,166,8z
	 M165,18h-4v-8h4V18z"/>
<path class="st0" d="M144,24h24v24h-24V24z"/>
<path class="st1" d="M147,30h18v-2h-18c-1.1,0-2,0.9-2,2v12c0,1.1,0.9,2,2,2h4v-2h-4V30z M157,36h-4v1.8c-0.6,0.6-1,1.3-1,2.2
	s0.4,1.7,1,2.2V44h4v-1.8c0.6-0.6,1-1.3,1-2.2c0-0.9-0.4-1.7-1-2.2V36z M155,41.5c-0.8,0-1.5-0.7-1.5-1.5s0.7-1.5,1.5-1.5
	s1.5,0.7,1.5,1.5S155.8,41.5,155,41.5z M166,32h-6c-0.5,0-1,0.5-1,1v10c0,0.5,0.5,1,1,1h6c0.5,0,1-0.5,1-1V33
	C167,32.5,166.5,32,166,32z M165,42h-4v-8h4V42z"/>
<path class="st0" d="M96,24h24v24H96V24z"/>
<path class="st1" d="M108,26c-5.5,0-10,4.5-10,10s4.5,10,10,10c5.5,0,10-4.5,10-10S113.5,26,108,26z M107,43.9c-3.9-0.5-7-3.8-7-7.9
	c0-0.6,0.1-1.2,0.2-1.8L105,39v1c0,1.1,0.9,2,2,2V43.9z M113.9,41.4c-0.3-0.8-1-1.4-1.9-1.4h-1v-3c0-0.6-0.4-1-1-1h-6v-2h2
	c0.6,0,1-0.5,1-1v-2h2c1.1,0,2-0.9,2-2v-0.4c2.9,1.2,5,4.1,5,7.4C116,38.1,115.2,40,113.9,41.4z"/>
<path class="st0" d="M96,0h24v24H96V0z"/>
<path class="st2" d="M108,2c-5.5,0-10,4.5-10,10s4.5,10,10,10c5.5,0,10-4.5,10-10S113.5,2,108,2z M107,19.9c-3.9-0.5-7-3.9-7-7.9
	c0-0.6,0.1-1.2,0.2-1.8L105,15v1c0,1.1,0.9,2,2,2V19.9z M113.9,17.4c-0.3-0.8-1-1.4-1.9-1.4h-1v-3c0-0.6-0.4-1-1-1h-6v-2h2
	c0.6,0,1-0.4,1-1V7h2c1.1,0,2-0.9,2-2V4.6c2.9,1.2,5,4.1,5,7.4C116,14.1,115.2,16,113.9,17.4z"/>
<path class="st2" d="M132,3c-5,0-9,4-9,9s4,9,9,9c0.8,0,1.5-0.7,1.5-1.5c0-0.4-0.1-0.7-0.4-1c-0.2-0.3-0.4-0.6-0.4-1
	c0-0.8,0.7-1.5,1.5-1.5h1.8c2.8,0,5-2.2,5-5C141,6.6,137,3,132,3z M126.5,12c-0.8,0-1.5-0.7-1.5-1.5s0.7-1.5,1.5-1.5
	s1.5,0.7,1.5,1.5S127.3,12,126.5,12z M129.5,8c-0.8,0-1.5-0.7-1.5-1.5s0.7-1.5,1.5-1.5s1.5,0.7,1.5,1.5S130.3,8,129.5,8z M134.5,8
	c-0.8,0-1.5-0.7-1.5-1.5s0.7-1.5,1.5-1.5s1.5,0.7,1.5,1.5S135.3,8,134.5,8z M137.5,12c-0.8,0-1.5-0.7-1.5-1.5s0.7-1.5,1.5-1.5
	s1.5,0.7,1.5,1.5S138.3,12,137.5,12z"/>
<path class="st0" d="M120,0h24v24h-24V0z"/>
<path class="st1" d="M132,27c-5,0-9,4-9,9s4,9,9,9c0.8,0,1.5-0.7,1.5-1.5c0-0.4-0.1-0.7-0.4-1c-0.2-0.3-0.4-0.6-0.4-1
	c0-0.8,0.7-1.5,1.5-1.5h1.8c2.8,0,5-2.2,5-5C141,30.6,137,27,132,27z M126.5,36c-0.8,0-1.5-0.7-1.5-1.5s0.7-1.5,1.5-1.5
	s1.5,0.7,1.5,1.5S127.3,36,126.5,36z M129.5,32c-0.8,0-1.5-0.7-1.5-1.5s0.7-1.5,1.5-1.5s1.5,0.7,1.5,1.5S130.3,32,129.5,32z
	 M134.5,32c-0.8,0-1.5-0.7-1.5-1.5s0.7-1.5,1.5-1.5s1.5,0.7,1.5,1.5S135.3,32,134.5,32z M137.5,36c-0.8,0-1.5-0.7-1.5-1.5
	s0.7-1.5,1.5-1.5s1.5,0.7,1.5,1.5S138.3,36,137.5,36z"/>
<path class="st0" d="M120,24h24v24h-24V24z"/>
<path class="st1" d="M184,30l2.3,2.3l-4.9,4.9l-4-4l-7.4,7.4l1.4,1.4l6-6l4,4l6.3-6.3L190,36v-6H184z"/>
<path class="st0" d="M168,24h24v24h-24V24z"/>
<path class="st2" d="M184,6l2.3,2.3l-4.9,4.9l-4-4l-7.4,7.4l1.4,1.4l6-6l4,4l6.3-6.3L190,12V6H184z"/>
<path class="st0" d="M168,0h24v24h-24V0z"/>
<path class="st0" d="M72,24h24v24H72V24z"/>
<path class="st1" d="M81.4,40.6L76.8,36l4.6-4.6L80,30l-6,6l6,6L81.4,40.6z M86.6,40.6l4.6-4.6l-4.6-4.6L88,30l6,6l-6,6
	C88,42,86.6,40.6,86.6,40.6z"/>
<path class="st0" d="M72,0h24v24H72V0z"/>
<path class="st2" d="M81.4,16.6L76.8,12l4.6-4.6L80,6l-6,6l6,6L81.4,16.6z M86.6,16.6l4.6-4.6l-4.6-4.6L88,6l6,6l-6,6
	C88,18,86.6,16.6,86.6,16.6z"/>
<path class="st0" d="M48,0h24v24H48V0z"/>
<path class="st2" d="M68.5,11H67V7c0-1.1-0.9-2-2-2h-4V3.5C61,2.1,59.9,1,58.5,1S56,2.1,56,3.5V5h-4c-1.1,0-2,0.9-2,2v3.8h1.5
	c1.5,0,2.7,1.2,2.7,2.7s-1.2,2.7-2.7,2.7H50V20c0,1.1,0.9,2,2,2h3.8v-1.5c0-1.5,1.2-2.7,2.7-2.7s2.7,1.2,2.7,2.7V22H65
	c1.1,0,2-0.9,2-2v-4h1.5c1.4,0,2.5-1.1,2.5-2.5S69.9,11,68.5,11z"/>
<path class="st0" d="M48,24h24v24H48V24z"/>
<path class="st1" d="M68.5,35H67v-4c0-1.1-0.9-2-2-2h-4v-1.5c0-1.4-1.1-2.5-2.5-2.5S56,26.1,56,27.5V29h-4c-1.1,0-2,0.9-2,2v3.8h1.5
	c1.5,0,2.7,1.2,2.7,2.7s-1.2,2.7-2.7,2.7H50V44c0,1.1,0.9,2,2,2h3.8v-1.5c0-1.5,1.2-2.7,2.7-2.7s2.7,1.2,2.7,2.7V46H65
	c1.1,0,2-0.9,2-2v-4h1.5c1.4,0,2.5-1.1,2.5-2.5S69.9,35,68.5,35z"/>
</svg>
