<?xml version="1.0" encoding="utf-8"?>
<!-- Generator: Adobe Illustrator 19.2.1, SVG Export Plug-In . SVG Version: 6.00 Build 0)  -->
<svg version="1.1" id="Layer_1" xmlns="http://www.w3.org/2000/svg" xmlns:xlink="http://www.w3.org/1999/xlink" x="0px" y="0px"
	width="192px" height="64px" viewBox="0 0 192 64" style="enable-background:new 0 0 192 64;" xml:space="preserve">
<style type="text/css">
	.st0{fill:#F39C12;}
	.st1{fill:#FFFFFF;}
	.st2{opacity:0.3;fill-rule:evenodd;clip-rule:evenodd;fill:#F39C12;}
	.st3{fill-rule:evenodd;clip-rule:evenodd;fill:#F39C12;}
	.st4{opacity:0.3;fill-rule:evenodd;clip-rule:evenodd;fill:#FFFFFF;}
	.st5{fill-rule:evenodd;clip-rule:evenodd;fill:#FFFFFF;}
</style>
<path class="st0" d="M87.4,11.4c-0.6,0.3-1.1,0.4-1.8,0.5c0.6-0.4,1.1-0.9,1.3-1.7c-0.6,0.4-1.2,0.6-1.9,0.7
	c-0.6-0.6-1.4-0.9-2.2-0.9c-1.6,0-3,1.4-3,3c0,0.3,0,0.5,0.1,0.6c-2.5-0.1-4.8-1.3-6.3-3.1c-0.3,0.5-0.4,0.9-0.4,1.6
	c0,1,0.6,1.9,1.4,2.5c-0.5,0-0.9-0.2-1.4-0.4l0,0c0,1.5,1,2.7,2.4,3c-0.3,0.1-0.6,0.1-0.8,0.1c-0.2,0-0.4,0-0.6-0.1
	c0.4,1.2,1.5,2.1,2.9,2.1c-1,0.8-2.3,1.3-3.8,1.3c-0.3,0-0.5,0-0.7,0c1.4,0.8,3,1.4,4.6,1.4c5.5,0,8.6-4.6,8.6-8.6
	c0-0.1,0-0.3,0-0.4C86.5,12.6,87,12,87.4,11.4z"/>
<path class="st1" d="M87.4,43.4c-0.6,0.3-1.1,0.4-1.8,0.5c0.6-0.4,1.1-0.9,1.3-1.7c-0.6,0.4-1.2,0.6-1.9,0.7
	c-0.6-0.6-1.4-0.9-2.2-0.9c-1.6,0-3,1.4-3,3c0,0.3,0,0.5,0.1,0.6c-2.5-0.1-4.8-1.3-6.3-3.1c-0.3,0.5-0.4,0.9-0.4,1.6
	c0,1,0.6,1.9,1.4,2.5c-0.5,0-0.9-0.2-1.4-0.4l0,0c0,1.5,1,2.7,2.4,3c-0.3,0.1-0.6,0.1-0.8,0.1c-0.2,0-0.4,0-0.6-0.1
	c0.4,1.2,1.5,2.1,2.9,2.1c-1,0.8-2.3,1.3-3.8,1.3c-0.3,0-0.5,0-0.7,0c1.4,0.8,3,1.4,4.6,1.4c5.5,0,8.6-4.6,8.6-8.6
	c0-0.1,0-0.3,0-0.4C86.5,44.6,87,44,87.4,43.4z"/>
<path id="White_2_" class="st0" d="M14.2,22.5v-5h-2v-3h2v-2c0-2.1,1.2-3,3-3c0.9,0,1.8,0,2,0v3h-1c-0.6,0-1,0.4-1,1v1h2.6l-0.6,3
	h-2v5H14.2z"/>
<path class="st0" d="M48.4,19.9c0-0.1,0-0.2,0-0.3c0-0.1,0-0.2-0.1-0.3c0-0.1-0.1-0.2-0.1-0.3C48.1,19,48,18.9,48,18.8
	c0-0.1-0.1-0.1-0.2-0.2c-0.1-0.1-0.2-0.2-0.2-0.2c-0.1,0-0.1-0.1-0.3-0.2c-0.1-0.1-0.2-0.1-0.2-0.2c0,0-0.1-0.1-0.3-0.2
	c-0.1-0.1-0.2-0.1-0.2-0.2c-0.1,0-0.2,0-0.4,0c-0.3,0-0.6,0-0.8,0.1c-0.3,0-0.6,0.1-0.8,0.2c-0.3,0.1-0.5,0.2-0.8,0.4
	c-0.2,0.1-0.4,0.3-0.5,0.6c-0.1,0.2-0.2,0.5-0.2,0.8c0,0.4,0.1,0.7,0.3,0.9c0.2,0.3,0.4,0.5,0.7,0.7c0.3,0.2,0.6,0.3,0.9,0.4
	c0.3,0.1,0.7,0.1,1,0.1c0.3,0,0.6,0,0.9-0.1c0.3-0.1,0.5-0.2,0.8-0.3c0.3-0.1,0.4-0.3,0.6-0.6C48.3,20.6,48.4,20.3,48.4,19.9z
	 M47.5,13.2c0-0.3,0-0.6-0.1-1c-0.1-0.4-0.2-0.7-0.4-1c-0.2-0.3-0.4-0.6-0.7-0.8c-0.3-0.2-0.6-0.3-0.9-0.3c-0.5,0-0.9,0.2-1.1,0.5
	c-0.3,0.4-0.4,0.8-0.4,1.3c0,0.2,0,0.5,0.1,0.8c0.1,0.3,0.2,0.5,0.3,0.8c0.1,0.3,0.3,0.5,0.4,0.7c0.2,0.2,0.4,0.4,0.6,0.5
	c0.2,0.1,0.5,0.2,0.8,0.2c0.5,0,0.9-0.2,1.1-0.5C47.3,14.1,47.5,13.7,47.5,13.2z M46.4,9.5h3.4l-1.1,0.6h-1.1c0.4,0.2,0.7,0.6,0.9,1
	c0.2,0.4,0.3,0.9,0.3,1.3c0,0.4-0.1,0.7-0.2,1c-0.1,0.3-0.3,0.5-0.4,0.7c-0.2,0.2-0.3,0.4-0.5,0.5c-0.2,0.2-0.3,0.3-0.4,0.5
	c-0.1,0.2-0.2,0.3-0.2,0.5c0,0.1,0,0.3,0.1,0.4c0.1,0.1,0.2,0.3,0.3,0.4c0.1,0.1,0.3,0.2,0.5,0.4c0.2,0.1,0.3,0.3,0.5,0.4
	c0.2,0.2,0.3,0.3,0.5,0.5c0.1,0.2,0.3,0.4,0.3,0.7c0.1,0.3,0.1,0.5,0.1,0.8c0,0.8-0.4,1.6-1.1,2.2c-0.8,0.7-1.9,1-3.3,1
	c-0.3,0-0.6,0-0.9-0.1c-0.3-0.1-0.6-0.1-0.9-0.3c-0.3-0.1-0.6-0.3-0.9-0.5c-0.2-0.2-0.4-0.4-0.6-0.7c-0.2-0.3-0.2-0.6-0.2-1
	c0-0.3,0.1-0.7,0.3-1.1c0.2-0.3,0.4-0.6,0.8-0.9c0.3-0.2,0.7-0.4,1.1-0.6c0.4-0.1,0.8-0.2,1.2-0.3c0.4-0.1,0.8-0.1,1.2-0.1
	c-0.3-0.4-0.5-0.8-0.5-1.2c0-0.1,0-0.1,0-0.2c0-0.1,0-0.1,0-0.2c0,0,0-0.1,0.1-0.2c0-0.1,0-0.1,0.1-0.2c-0.2,0-0.4,0-0.5,0
	c-0.8,0-1.4-0.3-2-0.8c-0.6-0.5-0.8-1.1-0.8-1.9c0-0.7,0.2-1.4,0.7-2c0.5-0.6,1.1-0.9,1.8-1.1C45.5,9.5,45.9,9.5,46.4,9.5z
	 M54.6,11.5v1h-2v2h-1v-2h-2v-1h2v-2h1v2H54.6z"/>
<path id="White_3_" class="st1" d="M14.2,54.5v-5h-2v-3h2v-2c0-2.1,1.2-3,3-3c0.9,0,1.8,0,2,0v3h-1c-0.6,0-1,0.4-1,1v1h2.6l-0.6,3
	h-2v5H14.2z"/>
<path class="st1" d="M48.4,51.9c0-0.1,0-0.2,0-0.3c0-0.1,0-0.2-0.1-0.3c0-0.1-0.1-0.2-0.1-0.3C48.1,51,48,50.9,48,50.8
	c0-0.1-0.1-0.1-0.2-0.2c-0.1-0.1-0.2-0.2-0.2-0.2c-0.1,0-0.1-0.1-0.3-0.2c-0.1-0.1-0.2-0.1-0.2-0.2c0,0-0.1-0.1-0.3-0.2
	c-0.1-0.1-0.2-0.1-0.2-0.2c-0.1,0-0.2,0-0.4,0c-0.3,0-0.6,0-0.8,0.1c-0.3,0-0.6,0.1-0.8,0.2c-0.3,0.1-0.5,0.2-0.8,0.4
	c-0.2,0.1-0.4,0.3-0.5,0.6c-0.1,0.2-0.2,0.5-0.2,0.8c0,0.4,0.1,0.7,0.3,0.9c0.2,0.3,0.4,0.5,0.7,0.7c0.3,0.2,0.6,0.3,0.9,0.4
	c0.3,0.1,0.7,0.1,1,0.1c0.3,0,0.6,0,0.9-0.1c0.3-0.1,0.5-0.2,0.8-0.3c0.3-0.1,0.4-0.3,0.6-0.6C48.3,52.6,48.4,52.3,48.4,51.9z
	 M47.5,45.2c0-0.3,0-0.6-0.1-1c-0.1-0.4-0.2-0.7-0.4-1c-0.2-0.3-0.4-0.6-0.7-0.8c-0.3-0.2-0.6-0.3-0.9-0.3c-0.5,0-0.9,0.2-1.1,0.5
	c-0.3,0.4-0.4,0.8-0.4,1.3c0,0.2,0,0.5,0.1,0.8c0.1,0.3,0.2,0.5,0.3,0.8c0.1,0.3,0.3,0.5,0.4,0.7c0.2,0.2,0.4,0.4,0.6,0.5
	c0.2,0.1,0.5,0.2,0.8,0.2c0.5,0,0.9-0.2,1.1-0.5C47.3,46.1,47.5,45.7,47.5,45.2z M46.4,41.5h3.4l-1.1,0.6h-1.1
	c0.4,0.2,0.7,0.6,0.9,1c0.2,0.4,0.3,0.9,0.3,1.3c0,0.4-0.1,0.7-0.2,1c-0.1,0.3-0.3,0.5-0.4,0.7c-0.2,0.2-0.3,0.4-0.5,0.5
	c-0.2,0.2-0.3,0.3-0.4,0.5c-0.1,0.2-0.2,0.3-0.2,0.5c0,0.1,0,0.3,0.1,0.4c0.1,0.1,0.2,0.3,0.3,0.4c0.1,0.1,0.3,0.2,0.5,0.4
	c0.2,0.1,0.3,0.3,0.5,0.4c0.2,0.2,0.3,0.3,0.5,0.5c0.1,0.2,0.3,0.4,0.3,0.7c0.1,0.3,0.1,0.5,0.1,0.8c0,0.8-0.4,1.6-1.1,2.2
	c-0.8,0.7-1.9,1-3.3,1c-0.3,0-0.6,0-0.9-0.1c-0.3-0.1-0.6-0.1-0.9-0.3c-0.3-0.1-0.6-0.3-0.9-0.5c-0.2-0.2-0.4-0.4-0.6-0.7
	c-0.2-0.3-0.2-0.6-0.2-1c0-0.3,0.1-0.7,0.3-1.1c0.2-0.3,0.4-0.6,0.8-0.9c0.3-0.2,0.7-0.4,1.1-0.6c0.4-0.1,0.8-0.2,1.2-0.3
	c0.4-0.1,0.8-0.1,1.2-0.1c-0.3-0.4-0.5-0.8-0.5-1.2c0-0.1,0-0.1,0-0.2c0-0.1,0-0.1,0-0.2c0,0,0-0.1,0.1-0.2c0-0.1,0-0.1,0.1-0.2
	c-0.2,0-0.4,0-0.5,0c-0.8,0-1.4-0.3-2-0.8c-0.6-0.5-0.8-1.1-0.8-1.9c0-0.7,0.2-1.4,0.7-2c0.5-0.6,1.1-0.9,1.8-1.1
	C45.5,41.5,45.9,41.5,46.4,41.5z M54.6,43.5v1h-2v2h-1v-2h-2v-1h2v-2h1v2H54.6z"/>
<path class="st0" d="M108.3,10.9c0,0.8-0.6,1.4-1.5,1.4c-0.9,0-1.5-0.6-1.5-1.4c0-0.8,0.6-1.4,1.5-1.4
	C107.8,9.5,108.3,10.1,108.3,10.9z M105.4,22.5v-9.1h2.8v9.1H105.4z M109.9,16.3c0-1.1,0-2.1-0.1-2.9h2.4l0.1,1.3h0.1
	c0.4-0.6,1.3-1.5,2.8-1.5c1.8,0,3.2,1.2,3.2,3.9v5.4h-2.8v-5c0-1.2-0.4-2-1.4-2c-0.8,0-1.2,0.5-1.4,1.1c-0.1,0.2-0.1,0.5-0.1,0.7
	v5.2h-2.8V16.3z"/>
<path class="st1" d="M108.3,42.7c0,0.8-0.6,1.4-1.5,1.4c-0.9,0-1.5-0.6-1.5-1.4c0-0.8,0.6-1.4,1.5-1.4
	C107.8,41.3,108.3,41.9,108.3,42.7z M105.4,54.3v-9.1h2.8v9.1H105.4z M109.9,48.1c0-1.1,0-2.1-0.1-2.9h2.4l0.1,1.3h0.1
	c0.4-0.6,1.3-1.5,2.8-1.5c1.8,0,3.2,1.2,3.2,3.9v5.4h-2.8v-5c0-1.2-0.4-2-1.4-2c-0.8,0-1.2,0.5-1.4,1.1c-0.1,0.2-0.1,0.5-0.1,0.7
	v5.2h-2.8V48.1z"/>
<g>
	<g>
		<path class="st2" d="M174.8,9.1H174l-0.5,2.1L173,9.1h-0.8c0.2,0.5,0.3,1,0.5,1.5c0.2,0.7,0.4,1.3,0.5,1.7v2.1h0.8v-2.1L174.8,9.1
			z M176.9,13.1v-1.4c0-0.4-0.1-0.7-0.2-0.9c-0.2-0.3-0.5-0.4-0.8-0.4c-0.4,0-0.6,0.1-0.8,0.4c-0.2,0.2-0.2,0.5-0.2,0.9v1.4
			c0,0.4,0.1,0.7,0.2,0.9c0.2,0.3,0.5,0.4,0.8,0.4c0.4,0,0.6-0.1,0.8-0.4C176.9,13.8,176.9,13.5,176.9,13.1z M176.2,13.2
			c0,0.4-0.1,0.5-0.3,0.5c-0.2,0-0.3-0.2-0.3-0.5v-1.6c0-0.4,0.1-0.5,0.3-0.5c0.2,0,0.3,0.2,0.3,0.5V13.2z M179.5,14.3v-3.9h-0.7v3
			c-0.2,0.2-0.3,0.3-0.4,0.3c-0.1,0-0.2-0.1-0.2-0.2c0,0,0-0.1,0-0.3v-2.9h-0.7v3.1c0,0.3,0,0.5,0.1,0.6c0.1,0.2,0.2,0.3,0.5,0.3
			c0.3,0,0.5-0.2,0.8-0.5v0.4H179.5z"/>
		<path class="st3" d="M174.8,9H174l-0.5,2.1L173,9h-0.8c0.2,0.5,0.3,1,0.5,1.5c0.3,0.7,0.4,1.3,0.5,1.7v2.1h0.8v-2.1L174.8,9z
			 M176.9,13v-1.4c0-0.4-0.1-0.7-0.2-0.9c-0.2-0.3-0.5-0.4-0.8-0.4c-0.4,0-0.6,0.1-0.8,0.4c-0.1,0.2-0.2,0.5-0.2,0.9V13
			c0,0.4,0.1,0.7,0.2,0.9c0.2,0.3,0.5,0.4,0.8,0.4c0.3,0,0.6-0.1,0.8-0.4C176.9,13.7,176.9,13.4,176.9,13z M176.2,13.1
			c0,0.4-0.1,0.5-0.3,0.5c-0.2,0-0.3-0.2-0.3-0.5v-1.6c0-0.4,0.1-0.5,0.3-0.5c0.2,0,0.3,0.2,0.3,0.5V13.1z M179.5,14.2v-3.9h-0.7v3
			c-0.2,0.2-0.3,0.3-0.4,0.3c-0.1,0-0.2-0.1-0.2-0.2c0,0,0-0.1,0-0.3v-2.9h-0.7v3.1c0,0.3,0,0.5,0.1,0.6c0.1,0.2,0.2,0.3,0.5,0.3
			c0.3,0,0.5-0.2,0.8-0.5v0.4H179.5z"/>
	</g>
	<g>
		<path class="st3" d="M181.6,16.2c-0.1-0.6-0.6-1.1-1.2-1.1c-1.4-0.2-2.9-0.2-4.3-0.2c-1.4,0-2.9,0-4.3,0.2
			c-0.6,0.1-1.1,0.5-1.3,1.1c-0.2,0.9-0.2,1.8-0.2,2.7c0,0.9,0,1.9,0.2,2.7c0.1,0.6,0.6,1.1,1.3,1.1c1.4,0.2,2.9,0.2,4.3,0.2
			c1.4,0,2.9,0,4.3-0.2c0.6-0.1,1.1-0.5,1.2-1.1c0.2-0.9,0.2-1.8,0.2-2.7C181.8,18.1,181.8,17.1,181.6,16.2z M173.6,17h-0.8v4.5H172
			V17h-0.8v-0.7h2.4V17z M175.7,21.5H175V21c-0.3,0.3-0.5,0.5-0.8,0.5c-0.2,0-0.4-0.1-0.4-0.3c0-0.1-0.1-0.3-0.1-0.6v-3.1h0.7v2.8
			c0,0.2,0,0.3,0,0.3c0,0.1,0.1,0.2,0.2,0.2c0.1,0,0.3-0.1,0.4-0.3v-2.9h0.7V21.5z M178.3,20.3c0,0.4,0,0.6-0.1,0.8
			c-0.1,0.3-0.3,0.4-0.6,0.4c-0.2,0-0.5-0.1-0.7-0.4v0.4h-0.7v-5.2h0.7V18c0.2-0.3,0.5-0.4,0.7-0.4c0.3,0,0.5,0.1,0.6,0.4
			c0,0.2,0.1,0.4,0.1,0.8V20.3z M181,19.7h-1.4v0.7c0,0.4,0.1,0.5,0.4,0.5c0.2,0,0.3-0.1,0.3-0.3c0,0,0-0.2,0-0.5h0.7v0.1
			c0,0.2,0,0.4,0,0.4c0,0.2-0.1,0.3-0.2,0.4c-0.2,0.3-0.5,0.4-0.8,0.4c-0.4,0-0.6-0.1-0.9-0.4c-0.1-0.2-0.2-0.5-0.2-0.9v-1.3
			c0-0.4,0.1-0.7,0.2-0.9c0.2-0.3,0.5-0.4,0.8-0.4c0.4,0,0.6,0.1,0.8,0.4c0.2,0.2,0.2,0.5,0.2,0.9V19.7z"/>
		<path class="st3" d="M177.3,18.2c-0.1,0-0.2,0.1-0.3,0.2v2.4c0.1,0.1,0.2,0.2,0.3,0.2c0.2,0,0.3-0.2,0.3-0.5v-1.7
			C177.6,18.4,177.5,18.2,177.3,18.2z"/>
		<path class="st3" d="M179.9,18.2c-0.2,0-0.3,0.2-0.3,0.5v0.4h0.7v-0.4C180.3,18.4,180.2,18.2,179.9,18.2z"/>
	</g>
</g>
<path class="st0" d="M143,18.3c-0.4,1.9-0.8,3.8-2.1,4.7c-0.4-2.9,0.6-5.1,1.1-7.4c-0.8-1.3,0.1-4.1,1.8-3.4c2.1,0.8-1.8,5,0.8,5.5
	c2.7,0.6,3.8-4.7,2.1-6.4c-2.4-2.5-7.1-0.1-6.5,3.5c0.1,0.9,1,1.1,0.4,2.3c-1.6-0.3-2-1.6-2-3.2c0.1-2.7,2.4-4.6,4.7-4.8
	c2.9-0.3,5.7,1.1,6.1,3.8c0.4,3.1-1.3,6.5-4.5,6.3C144.1,19.1,143.7,18.7,143,18.3z"/>
<g>
	<g>
		<path class="st4" d="M174.8,41.1H174l-0.5,2.1l-0.6-2.1h-0.8c0.2,0.5,0.3,1,0.5,1.5c0.2,0.7,0.4,1.3,0.5,1.7v2.1h0.8v-2.1
			L174.8,41.1z M176.9,45.1v-1.4c0-0.4-0.1-0.7-0.2-0.9c-0.2-0.3-0.5-0.4-0.8-0.4c-0.4,0-0.6,0.1-0.8,0.4c-0.2,0.2-0.2,0.5-0.2,0.9
			v1.4c0,0.4,0.1,0.7,0.2,0.9c0.2,0.3,0.5,0.4,0.8,0.4c0.4,0,0.6-0.1,0.8-0.4C176.9,45.8,176.9,45.5,176.9,45.1z M176.2,45.2
			c0,0.4-0.1,0.5-0.3,0.5c-0.2,0-0.3-0.2-0.3-0.5v-1.6c0-0.4,0.1-0.5,0.3-0.5c0.2,0,0.3,0.2,0.3,0.5V45.2z M179.5,46.3v-3.9h-0.7v3
			c-0.2,0.2-0.3,0.3-0.4,0.3c-0.1,0-0.2-0.1-0.2-0.2c0,0,0-0.1,0-0.3v-2.9h-0.7v3.1c0,0.3,0,0.5,0.1,0.6c0.1,0.2,0.2,0.3,0.5,0.3
			c0.3,0,0.5-0.2,0.8-0.5v0.4H179.5z"/>
		<path class="st5" d="M174.8,41H174l-0.5,2.1L173,41h-0.8c0.2,0.5,0.3,1,0.5,1.5c0.3,0.7,0.4,1.3,0.5,1.7v2.1h0.8v-2.1L174.8,41z
			 M176.9,45v-1.4c0-0.4-0.1-0.7-0.2-0.9c-0.2-0.3-0.5-0.4-0.8-0.4c-0.4,0-0.6,0.1-0.8,0.4c-0.1,0.2-0.2,0.5-0.2,0.9V45
			c0,0.4,0.1,0.7,0.2,0.9c0.2,0.3,0.5,0.4,0.8,0.4c0.3,0,0.6-0.1,0.8-0.4C176.9,45.7,176.9,45.4,176.9,45z M176.2,45.1
			c0,0.4-0.1,0.5-0.3,0.5c-0.2,0-0.3-0.2-0.3-0.5v-1.6c0-0.4,0.1-0.5,0.3-0.5c0.2,0,0.3,0.2,0.3,0.5V45.1z M179.5,46.2v-3.9h-0.7v3
			c-0.2,0.2-0.3,0.3-0.4,0.3c-0.1,0-0.2-0.1-0.2-0.2c0,0,0-0.1,0-0.3v-2.9h-0.7v3.1c0,0.3,0,0.5,0.1,0.6c0.1,0.2,0.2,0.3,0.5,0.3
			c0.3,0,0.5-0.2,0.8-0.5v0.4H179.5z"/>
	</g>
	<g>
		<path class="st5" d="M181.6,48.2c-0.1-0.6-0.6-1.1-1.2-1.1c-1.4-0.2-2.9-0.2-4.3-0.2c-1.4,0-2.9,0-4.3,0.2
			c-0.6,0.1-1.1,0.5-1.3,1.1c-0.2,0.9-0.2,1.8-0.2,2.7c0,0.9,0,1.9,0.2,2.7c0.1,0.6,0.6,1.1,1.3,1.1c1.4,0.2,2.9,0.2,4.3,0.2
			c1.4,0,2.9,0,4.3-0.2c0.6-0.1,1.1-0.5,1.2-1.1c0.2-0.9,0.2-1.8,0.2-2.7C181.8,50.1,181.8,49.1,181.6,48.2z M173.6,49h-0.8v4.5H172
			V49h-0.8v-0.7h2.4V49z M175.7,53.5H175V53c-0.3,0.3-0.5,0.5-0.8,0.5c-0.2,0-0.4-0.1-0.4-0.3c0-0.1-0.1-0.3-0.1-0.6v-3.1h0.7v2.8
			c0,0.2,0,0.3,0,0.3c0,0.1,0.1,0.2,0.2,0.2c0.1,0,0.3-0.1,0.4-0.3v-2.9h0.7V53.5z M178.3,52.3c0,0.4,0,0.6-0.1,0.8
			c-0.1,0.3-0.3,0.4-0.6,0.4c-0.2,0-0.5-0.1-0.7-0.4v0.4h-0.7v-5.2h0.7V50c0.2-0.3,0.5-0.4,0.7-0.4c0.3,0,0.5,0.1,0.6,0.4
			c0,0.2,0.1,0.4,0.1,0.8V52.3z M181,51.7h-1.4v0.7c0,0.4,0.1,0.5,0.4,0.5c0.2,0,0.3-0.1,0.3-0.3c0,0,0-0.2,0-0.5h0.7v0.1
			c0,0.2,0,0.4,0,0.4c0,0.2-0.1,0.3-0.2,0.4c-0.2,0.3-0.5,0.4-0.8,0.4c-0.4,0-0.6-0.1-0.9-0.4c-0.1-0.2-0.2-0.5-0.2-0.9v-1.3
			c0-0.4,0.1-0.7,0.2-0.9c0.2-0.3,0.5-0.4,0.8-0.4c0.4,0,0.6,0.1,0.8,0.4c0.2,0.2,0.2,0.5,0.2,0.9V51.7z"/>
		<path class="st5" d="M177.3,50.2c-0.1,0-0.2,0.1-0.3,0.2v2.4c0.1,0.1,0.2,0.2,0.3,0.2c0.2,0,0.3-0.2,0.3-0.5v-1.7
			C177.6,50.4,177.5,50.2,177.3,50.2z"/>
		<path class="st5" d="M179.9,50.2c-0.2,0-0.3,0.2-0.3,0.5v0.4h0.7v-0.4C180.3,50.4,180.2,50.2,179.9,50.2z"/>
	</g>
</g>
<path class="st1" d="M143,50.3c-0.4,1.9-0.8,3.8-2.1,4.7c-0.4-2.9,0.6-5.1,1.1-7.4c-0.8-1.3,0.1-4.1,1.8-3.4c2.1,0.8-1.8,5,0.8,5.5
	c2.7,0.6,3.8-4.7,2.1-6.4c-2.4-2.5-7.1-0.1-6.5,3.5c0.1,0.9,1,1.1,0.4,2.3c-1.6-0.3-2-1.6-2-3.2c0.1-2.7,2.4-4.6,4.7-4.8
	c2.9-0.3,5.7,1.1,6.1,3.8c0.4,3.1-1.3,6.5-4.5,6.3C144.1,51.1,143.7,50.7,143,50.3z"/>
</svg>
