<?xml version="1.0" encoding="utf-8"?>
<!-- Generator: Adobe Illustrator 19.2.1, SVG Export Plug-In . SVG Version: 6.00 Build 0)  -->
<svg version="1.1" id="Layer_1" xmlns="http://www.w3.org/2000/svg" xmlns:xlink="http://www.w3.org/1999/xlink" x="0px" y="0px"
	 viewBox="0 0 52 52" style="enable-background:new 0 0 52 52;" xml:space="preserve">
<style type="text/css">
	.st0{fill:#F39C12;}
</style>
<path class="st0" d="M44.4,43l-4,0.2c-0.8,0-1.8,0.6-2.3,1.3L36,47.8c-0.4,0.7-1.1,0.7-1.5,0c0,0-5.9-10.1-5.9-10.1
	c-0.1-0.2-0.2-0.1-0.3-0.1c-0.7,0.6-1.4,1.1-2.1,1.1c-0.8,0-1.7-0.5-2.3-1.1c-0.1,0-0.2-0.1-0.3,0.1l-5.9,10.2
	c-0.4,0.7-1.1,0.7-1.5,0l-2.1-3.4c-0.4-0.7-1.5-1.3-2.3-1.3l-4-0.2c-0.8,0-1.1-0.6-0.7-1.3c0,0,5.1-8.8,5.8-9.9
	c0.1-0.2-0.1-0.3-0.2-0.4c-0.9-0.3-1.9-0.6-2.3-1.3c-0.8-1.3,0.6-3.4,0.2-4.8c-0.4-1.4-2.5-2.7-2.5-4.1c0-1.6,2.2-3,2.6-4.4
	c0.4-1.4-1-3.5-0.2-4.8c0.8-1.3,3.3-1.2,4.3-2.2c1.1-1,1.1-3.5,2.3-4.2c1.3-0.7,3.4,0.7,4.8,0.4C22.1,6,24.5,3.6,26,3.6
	c1.5,0,2.8,2.1,4.2,2.5C31.6,6.4,33.7,5,35,5.7c1.3,0.7,1.3,3.2,2.3,4.2c1,1,3.5,0.9,4.3,2.2c0.8,1.3-0.6,3.4-0.2,4.8
	c0.4,1.4,2.6,3.1,2.6,4.5c0,1.5-2.1,2.7-2.5,4.1c-0.3,1.4,1,3.5,0.2,4.8c-0.5,0.8-1.5,1.1-2.6,1.4c0.9,1.5,5.9,10.1,5.9,10.1
	C45.5,42.4,45.2,43,44.4,43z M37.4,14.5c-1.2-2.1-2.9-3.7-4.8-4.8c0,0-0.1,0-0.1-0.1c0,0-0.1,0-0.1,0c-6.3-3.4-14.2-1.2-17.8,5
	C11,20.7,13,28.5,18.9,32.2c4,2.5,9.3,2.8,13.7,0.3C38.9,28.8,41,20.8,37.4,14.5z M20.4,30.7c-0.1-0.1-0.3-0.1-0.4-0.2
	c-1.5-0.9-2.8-2.2-3.7-3.8c-3.1-5.3-1.3-12.1,4-15.1c3.6-2.1,7.8-1.9,11.2,0c0,0,0,0,0,0c5.3,3.1,7.1,9.8,4,15.1
	C32.6,32,25.7,33.8,20.4,30.7z M32.5,19L30,18.6c-0.8-0.1-1.7-0.8-2.1-1.5l-1.2-2.3c-0.4-0.7-0.9-0.7-1.3,0l-1.1,2.3
	c-0.4,0.7-1.3,1.4-2.1,1.5L19.6,19c-0.8,0.1-1,0.7-0.4,1.2l1.9,1.8c0.6,0.5,0.9,1.7,0.8,2.4L21.4,27c-0.1,0.8,0.3,1.1,1.1,0.8
	l2.3-1.2c0.7-0.4,1.9-0.4,2.6,0l2.3,1.2c0.7,0.4,1.2,0,1.1-0.8l-0.4-2.6c-0.1-0.8,0.2-1.9,0.8-2.4l1.9-1.8
	C33.5,19.7,33.3,19.1,32.5,19z"/>
</svg>
