<?xml version="1.0" encoding="utf-8"?>
<!-- Generator: Adobe Illustrator 19.2.1, SVG Export Plug-In . SVG Version: 6.00 Build 0)  -->
<svg version="1.1" id="Layer_1" xmlns="http://www.w3.org/2000/svg" xmlns:xlink="http://www.w3.org/1999/xlink" x="0px" y="0px"
	 viewBox="0 0 52 52" style="enable-background:new 0 0 52 52;" xml:space="preserve">
<style type="text/css">
	.st0{fill:#F39C12;}
</style>
<g>
	<path class="st0" d="M8,35h36c1.7,0,3-1.3,3-3V12c0-1.7-1.3-3-3-3H8c-1.7,0-3,1.3-3,3v20C5,33.7,6.3,35,8,35z M9,13h34v18H9V13z"/>
	<path class="st0" d="M50,37H2c-0.6,0-1,0.4-1,1c0,2.8,2.2,5,5,5h40c2.8,0,5-2.2,5-5C51,37.4,50.6,37,50,37z M30,41h-8
		c-0.6,0-1-0.4-1-1s0.4-1,1-1h8c0.6,0,1,0.4,1,1S30.6,41,30,41z"/>
</g>
</svg>
